<?xml version="1.0" encoding="utf-8"?>
<!-- Generator: Adobe Illustrator 17.0.0, SVG Export Plug-In . SVG Version: 6.00 Build 0)  -->
<!DOCTYPE svg PUBLIC "-//W3C//DTD SVG 1.1//EN" "http://www.w3.org/Graphics/SVG/1.1/DTD/svg11.dtd">
<svg version="1.1" id="Capa_1" xmlns="http://www.w3.org/2000/svg" xmlns:xlink="http://www.w3.org/1999/xlink" x="0px" y="0px"
	 width="595.3px" height="595.3px" viewBox="0 0 595.3 595.3" style="enable-background:new 0 0 595.3 595.3;" xml:space="preserve"
	>
<style type="text/css">
	.Arqueado:_x0020_verde{fill:url(#SVGID_1_);stroke:#FFFFFF;stroke-width:0.25;stroke-miterlimit:1;}
	.st0{fill:#040F24;}
	.st1{fill:#408EC0;}
	.st2{fill:#FFFFFF;}
</style>
<linearGradient id="SVGID_1_" gradientUnits="userSpaceOnUse" x1="71.4326" y1="510.2368" x2="72.1397" y2="509.5297">
	<stop  offset="0" style="stop-color:#339A2A"/>
	<stop  offset="0.9831" style="stop-color:#121E0D"/>
</linearGradient>
<g>
	<path class="st0" d="M542.7,0v474.6c0,66.6-118.2,67.4-119.4,67.4c-45.6,0-86.4,14.8-113.9,41.8l-11.7,11.5l-11.7-11.5
		C258.4,556.8,217.6,542,172,542c-1.2,0-119.4-0.8-119.4-67.4V0H542.7"/>
	<path class="st1" d="M526,16.7v457.9c0,10.3-4,18.5-12.5,25.8c-7.9,6.8-19.4,12.4-34.2,16.7c-27.5,8-55.8,8.2-56.1,8.2
		c-50.4,0-95,16.5-125.6,46.5l-0.1,0.1l-0.1-0.1c-30.6-30-75.2-46.5-125.5-46.5c-0.3,0-28.6-0.2-56.1-8.2
		c-14.8-4.3-26.3-9.9-34.2-16.7c-8.5-7.3-12.5-15.5-12.5-25.8V16.7L526,16.7"/>
	<path class="st2" d="M133.9,147.8v357.6c19.8,4,37.3,4.3,38.2,4.3c9.3,0,18.4,0.5,27.3,1.6V147.8L133.9,147.8L133.9,147.8z"/>
	<path class="st2" d="M264.9,147.8V530c11.8,5.8,22.8,12.8,32.7,20.9c9.9-8.1,20.9-15.1,32.7-20.9V147.8L264.9,147.8L264.9,147.8z"
		/>
	<path class="st2" d="M395.9,147.8v363.4c8.9-1,18-1.6,27.3-1.6c0.9,0,18.3-0.3,38.2-4.3V147.8L395.9,147.8L395.9,147.8z"/>
	<path class="st2" d="M134,147.8l0,357.7c20,3.9,37,4,37.9,4h1.1c9,0,17.8,0.5,26.5,1.5V147.8C175.8,147.8,153.6,147.8,134,147.8
		L134,147.8z"/>
	<path class="st2" d="M265,147.8v382.1v0.1c12,6.1,23,13.4,33,22.1c9.8-8.3,20.7-15.4,32.5-21.4V147.8L265,147.8L265,147.8z"/>
	<path class="st2" d="M395.8,147.8v363.5c8.8-1.1,17.8-1.6,27-1.6h0.6c10.1-0.1,24-1.3,37.8-4V147.8L395.8,147.8L395.8,147.8z"/>
	<path class="st2" d="M133.3,62.8h-16.7V81h16.2c9.5,0,13.5-3,13.5-9.4C146.3,65.7,142.7,62.8,133.3,62.8z M146.1,87.7l-0.1,0.2
		l21.3,24.5h-17.7l-16.3-21.5h-16.8v21.5H102V52h31.8c18.4,0,27.7,7,27.7,18.9C161.5,79,156,86.2,146.1,87.7z"/>
	<path class="st2" d="M207.3,67.5l-10.7,21.8h26.8l-10.5-21.8l-2.6-6H210L207.3,67.5z M228.5,100.2h-37.3l-6,12.2h-15.6L202.1,52
		h16.2l32.6,60.4h-16.4L228.5,100.2z"/>
	<path class="st2" d="M307.8,65.6c-4.9-1.5-11.2-2.8-18.6-2.8c-17.5,0-23.6,6-23.6,19.3c0,14,6.4,19.7,23.9,19.7
		c6.9,0,13.1-1.4,18.3-3.5l1.9,10.6c-6,2.7-14.2,4.7-21.9,4.7c-25.1,0-37.4-11.7-37.4-31.6c0-18.4,11.8-31.3,38.7-31.3
		c7.4,0,15.3,1.5,20.4,3.2L307.8,65.6L307.8,65.6z"/>
	<rect x="320.8" y="52" class="st2" width="14.7" height="60.4"/>
	<polygon class="st2" points="408.2,112.4 368.9,74.9 364.3,70.4 364.1,70.4 364.3,76.9 364.3,112.4 351,112.4 351,52 363.2,52
		400,87.9 404.6,92.6 404.8,92.4 404.6,86 404.6,52 417.8,52 417.8,112.4 	"/>
	<path class="st2" d="M493.3,109.8c-6.4,2.3-16,3.9-24.8,3.9c-27.8,0-39.6-12-39.6-31.3c0-19.3,11.9-31.6,39.6-31.6
		c8.2,0,17,1.2,23.4,3.3l-1.5,11.7c-6.2-2-13.7-3.2-21.3-3.2c-18.3,0-25,5.6-25,19.5c0,13.6,6.1,19.7,23.8,19.7
		c4.8,0,9-0.6,12.6-1.6V81h12.6V109.8L493.3,109.8z"/>
</g>
</svg>
