<?xml version="1.0" encoding="utf-8"?>
<!-- Generator: Adobe Illustrator 17.0.0, SVG Export Plug-In . SVG Version: 6.00 Build 0)  -->
<!DOCTYPE svg PUBLIC "-//W3C//DTD SVG 1.1//EN" "http://www.w3.org/Graphics/SVG/1.1/DTD/svg11.dtd">
<svg version="1.1" id="Layer_1" xmlns="http://www.w3.org/2000/svg" xmlns:xlink="http://www.w3.org/1999/xlink" x="0px" y="0px"
	 width="595.3px" height="595.3px" viewBox="0 0 595.3 595.3" style="enable-background:new 0 0 595.3 595.3;" xml:space="preserve"
	>
<style type="text/css">
	.st0{fill-rule:evenodd;clip-rule:evenodd;fill:#141111;}
	.st1{fill-rule:evenodd;clip-rule:evenodd;fill:#FFFFFF;}
</style>
<g>
	<path class="st0" d="M343.6,0h-92c-6,26.6-51.5,39.5-136.2,38.6l-75.4,62.5c38.8,70.4,46,141.6,21.9,213.8
		c-24.4,72.1,2.5,125.6,80.8,160.6c69.6,31.3,121.3,71.2,154.9,119.8c33.5-48.6,85.1-88.5,155.1-119.8
		c77.9-34.9,104.9-88.5,80.6-160.6c-24.1-72.2-17-143.4,21.9-213.8l-75.4-62.5C395.1,39.5,349.7,26.6,343.6,0L343.6,0z"/>
	<path class="st1" d="M259.7,11h75.8c12.2,26.3,58.9,39.2,140.4,38.6l65.4,54.2c-36.7,70.8-42.9,142.2-18.4,214.5
		c22,65.9-3.1,114.8-74.7,147C382.3,495,332,532,297.7,576.5C263.3,532,213,495,147.2,465.4c-71.6-32.2-96.6-81.1-74.7-147
		C97,246.1,90.7,174.7,54,103.9l65.5-54.2C200.9,50.2,247.7,37.4,259.7,11L259.7,11z"/>
	<path class="st0" d="M325.8,27.6h-56.1C251.5,53.2,203.5,66,125.4,66.2l-50.6,42.1c33.4,71,37.9,142.7,13.5,215.4v-0.2
		c-18.1,56.7,3.7,99,65.7,126.8c0.5,0.2,0.9,0.4,1.5,0.8c60.1,27,107.4,60.1,142.2,99.5c34.7-39.4,82.2-72.5,142.3-99.5
		c0.4-0.4,0.8-0.6,1.4-0.8c61.9-27.8,83.9-70.1,65.8-126.8v0.2c-24.5-72.7-20.1-144.4,13.5-215.4l-50.8-42.1
		C391.8,66,343.8,53.2,325.8,27.6L325.8,27.6z"/>
	<path class="st1" d="M275.3,38.6h45.1c20.8,25.2,69.4,38.1,145.5,38.6l41.2,34.2c-13.5,30.3-21.8,60.7-25.1,91.4
		c-4.2,41.2,0.6,82.6,14.7,124.4c0,0.2,0,0.6,0.2,0.8c2,6.4,3.3,12.5,4.3,18.5c5.3,40.9-16.2,72.1-64.3,93.6h-0.1
		c-0.8,0.4-1.6,0.8-2.2,1.1c-56.7,25.7-102.3,56.7-136.8,92.9c-34.6-36.3-80.3-67.3-136.9-92.9c-0.7-0.3-1.5-0.7-2.2-1.1
		c-48.3-21.6-69.5-52.8-64.2-93.6c0.7-6,2-12.1,4-18.5c0.2-0.2,0.2-0.6,0.4-0.8c13.9-41.7,18.7-83.2,14.4-124.4
		c-3-30.7-11.3-61.1-24.8-91.4l41.1-34.2C205.7,76.8,254.3,63.8,275.3,38.6L275.3,38.6z"/>
	<path class="st0" d="M481.9,202.9H113.2c4.3,41.2-0.5,82.6-14.4,124.4c-0.2,0.2-0.2,0.6-0.4,0.8c-2,6.4-3.3,12.5-4,18.5h406.7
		c-1-6-2.2-12.1-4.3-18.5c-0.2-0.2-0.2-0.6-0.2-0.8C482.5,285.5,477.7,244,481.9,202.9L481.9,202.9z"/>
	<polygon class="st0" points="366.9,137.5 366.9,128.6 385.8,128.6 385.8,117.5 354.3,117.5 354.3,169 366.9,169 366.9,148.1
		383.1,148.1 383.1,137.5 366.9,137.5 	"/>
	<path class="st0" d="M216.6,117.5h-13.9L187.1,169h13.3l1.9-8.5h14.3l2.2,8.5h13.3L216.6,117.5L216.6,117.5z M214.1,149.1h-9.2
		l4.6-18.1L214.1,149.1L214.1,149.1z"/>
	<polygon class="st0" points="248.1,169 248.1,154.7 235.8,154.7 235.8,169 248.1,169 	"/>
	<polygon class="st0" points="395.5,169 395.5,154.7 383.1,154.7 383.1,169 395.5,169 	"/>
	<polygon class="st0" points="412.8,418 400.5,418 400.5,432.3 412.8,432.3 412.8,418 	"/>
	<path class="st0" d="M229.5,417.6c-0.1-3.1-0.7-5.9-2-8.1c-1.5-2.2-3.7-3.7-6.4-4.4c1.9-1.2,3.3-2.4,4.4-3.7
		c1.7-2.2,2.3-4.8,2.3-7.7c-0.1-1.5-0.3-2.9-0.5-4.3c-0.6-1.8-1.7-3.4-2.9-4.8c-1.9-2.3-4.5-3.6-8-3.8c-0.3-0.2-0.7-0.2-1.3,0h-23.7
		v51.5h21.8c1,0,3-0.2,5.8-0.6c2.3-0.5,3.9-1.1,5-1.9c1.7-1.3,3.1-2.9,4-5.1C229,422.5,229.4,420.1,229.5,417.6L229.5,417.6z
		 M214.1,392.4c0.6,0.7,0.8,1.7,0.9,2.9c0,0.2,0,0.6,0,0.7c0,1.7-0.3,2.8-0.9,3.5c-0.9,1-2.4,1.5-4.4,1.7h-5.6v-9.9h5.8
		C211.9,391,213.2,391.4,214.1,392.4L214.1,392.4z M216.6,415.7c0,1.7-0.3,2.9-1.1,3.9c-0.9,0.9-2.5,1.5-4.8,1.7h-6.6v-10.5h6.6
		c2.2-0.2,3.9,0.4,4.8,1.5C216.3,413.2,216.6,414.4,216.6,415.7L216.6,415.7z"/>
	<polygon class="st0" points="249,418 236.7,418 236.7,432.3 249,432.3 249,418 	"/>
	<path class="st0" d="M380.8,380.6c-1.9-0.6-3.9-0.8-6.2-0.8c-2.4,0-4.5,0.2-6.4,0.8c-3.7,1.1-6.6,3.1-9.1,6.1
		c-0.4,0.4-0.7,0.8-0.9,1.3c-3.1,4.7-4.8,10.7-4.6,18.6c-0.2,6.4,0.9,11.6,3.1,15.6c1.9,4.3,4.4,7,7.3,8.7c2.9,1.7,6.6,2.3,11.2,2.3
		c3.5-0.2,6.6-0.9,9.1-2.1c2.3-1.3,4.4-3.1,6-5.9c1.7-2.7,2.7-5.9,3.3-9.6l-11-4.2c-0.6,3.1-1.5,5.7-2.6,7.5
		c-1.3,1.7-3.1,2.4-5.5,2.4c-2.8-0.2-4.8-1.2-6.2-3.1c-1.3-2.2-1.9-6.2-1.9-12c0-4.6,0.5-7.9,1.8-9.9c0-0.2,0-0.3,0.1-0.5
		c1.5-2.6,3.5-3.9,6.3-3.9c1.3,0,2.3,0.4,3.6,0.9c1,0.8,1.7,1.7,2.6,3c0.5,0.5,0.9,1.7,1.3,3.3l11.2-3c-1-3.1-1.9-5.7-3.1-7.7
		c-1.1-1.9-2.4-3.3-3.7-4.6C385,382.3,383.1,381.2,380.8,380.6L380.8,380.6z"/>
	<path class="st1" d="M154.3,260.2c-1.7-2.3-3.7-4.2-5.9-5.3c-2.4-1.5-5.6-2.2-9.3-2.2h-18.9v51.5h18.9c2.3,0,4.8-0.5,7.8-1.5
		c1.9-0.5,4-1.9,5.9-3.8c1.7-2.2,3.1-4.8,4-7.8c1-3.1,1.4-7.3,1.6-12.7c0-3.5-0.4-6.9-1-10.1C156.7,265.2,155.6,262.7,154.3,260.2
		L154.3,260.2z M132.9,264.5h3.5c3.1,0,5.6,0.9,7,2.9c1.3,2,2,5.7,2,11.4c0,3.9-0.4,6.8-1,8.7c-0.6,2-1.5,3.3-2.5,3.8
		c-1.4,1-3.1,1.3-5.9,1.3h-3.1V264.5L132.9,264.5z"/>
	<path class="st1" d="M233.2,254c-2-0.9-5-1.3-8.8-1.3h-21.6v51.5H216v-21h0.9c1.4,0,2.2,0.4,3.1,1.3c0.8,0.6,1.5,1.9,2.4,4.3
		l6.8,15.4h14.5l-6.1-14.9c-0.3-0.9-1.1-1.8-1.9-2.9c-1-1.5-1.5-2.3-1.9-2.7c-1-0.9-2.1-1.5-3.5-2c2-0.5,3.5-1.3,4.4-2.1
		c1.7-1.4,3.1-2.8,4.1-4.8c0.9-2.2,1.5-4.8,1.5-7.6c0-3.5-0.6-6.2-1.9-8.3C237.1,256.6,235.3,255,233.2,254L233.2,254z M226.2,264.5
		c1,0.9,1.4,2.1,1.4,3.8c-0.2,1.2-0.4,2.1-0.8,3c-0.7,0.7-1.5,1.3-2.1,1.5c-1.7,0.5-2.8,0.9-3.3,0.9H216v-10.4h5.5
		C223.7,263.3,225.3,263.5,226.2,264.5L226.2,264.5z"/>
	<polygon class="st1" points="175.9,289.9 163.7,289.9 163.7,304.2 175.9,304.2 175.9,289.9 	"/>
	<polygon class="st1" points="283.1,272 283.1,263.9 304.6,263.9 304.6,252.7 270.2,252.7 270.2,304.2 305.2,304.2 305.2,292.6
		283.1,292.6 283.1,282.6 302.9,282.6 302.9,272 283.1,272 	"/>
	<polygon class="st1" points="261.2,252.7 248.5,252.7 248.5,304.2 261.2,304.2 261.2,252.7 	"/>
	<polygon class="st1" points="350.9,265.6 363.8,265.6 363.8,304.2 376.7,304.2 376.7,265.6 389.6,265.6 389.6,252.7 350.9,252.7
		350.9,265.6 	"/>
	<path class="st1" d="M341,255.8c-2.7-2.7-6.7-4-12.1-4c-4.2,0-7.7,0.7-10.1,2.1c-2.5,1.4-4.4,3.3-5.5,5.8c-1.4,2-1.9,4.6-1.9,7.3
		c-0.3,4.1,1.1,7.4,3.5,9.9c2.3,2.6,6.4,4.6,12.1,6.2c3.3,1,5.6,1.9,6.4,3.1c1,1,1.5,2,1.5,3.3c0,1.5-0.5,2.8-1.5,3.9
		c-1.1,0.9-2.5,1.5-4.3,1.5c-2.3,0-4.4-0.9-5.7-2.9c-0.9-1.5-1.5-3.3-1.7-5.8l-12.3,1c0.6,5.2,2,9.4,4.6,12.9c2.7,3.3,7.5,5,14.7,5
		c4,0,7.3-0.8,10-2.1c2.7-1.5,4.8-3.5,6.2-6.2c1.5-2.7,2.1-5.9,2.1-9.4c0-2.8-0.5-5.4-1.6-7.6c-1.4-2.3-3-4.2-5.4-5.5
		c-2.4-1.7-6.4-3.3-11.8-5c-2.3-0.4-3.8-1-4.4-1.7c-0.6-0.6-1-1.3-1-2.2c-0.1-1.3,0.2-2.1,1.2-2.9c0.5-0.9,1.9-1.3,3.4-1.1
		c1.8-0.2,3.2,0.3,4.1,1.7c1.1,0.9,1.8,2.5,2.2,4.8l11.9-1C345.5,261.9,343.8,258.3,341,255.8L341,255.8z"/>
	<path class="st1" d="M430.8,258.8c-1.3-2.1-2.9-3.8-5-4.8c-2.2-0.9-5.2-1.3-9.1-1.3h-21.3v51.5h13.1v-21h0.9c1.3,0,2.2,0.4,3.1,1.3
		c0.8,0.6,1.5,1.9,2.4,4.3l6.7,15.4h14.4l-5.9-14.9c-0.4-0.9-1.1-1.8-2-2.9c-0.9-1.5-1.5-2.3-1.8-2.7c-1-0.9-2-1.5-3.5-2
		c2-0.5,3.5-1.3,4.4-2.1c1.7-1.4,3.1-2.8,4-4.8c1-2.2,1.6-4.8,1.6-7.6C432.7,263.5,432.1,260.8,430.8,258.8L430.8,258.8z M420,268.3
		c0,1.2-0.2,2.1-0.6,3c-0.8,0.7-1.5,1.3-2.2,1.5c-1.7,0.5-2.9,0.9-3.5,0.9h-5.1v-10.4h5.5c2.2,0,3.9,0.3,4.8,1.3
		C419.6,265.4,420,266.7,420,268.3L420,268.3z"/>
	<path class="st1" d="M449.4,304.2l2-8.3h14.3l2.2,8.3h13.3l-15.5-51.5h-13.9l-15.6,51.5H449.4L449.4,304.2z M458.6,266.4l4.6,18.1
		h-9.3L458.6,266.4L458.6,266.4z"/>
</g>
</svg>
